# xmcd
#
# Track frame offsets:
#	150
#	17248
#	35055
#	60390
#	71859
#	87278
#	102447
#	115797
#	131123
#	141555
#	156272
#	168004
#	184322
#	196219
#
# Disc length: 2870 seconds
#
# Revision: 0
# Processed by: cddbd v1.4PL0 Copyright (c) Steve Scherf et al.
# Submitted via: dBpowerAMP V4.0
#
DISCID=cc0b340e
DTITLE=Richard Anthony - Les inoubliables
DYEAR=1900
DGENRE=
TTITLE0=Maggy May
TTITLE1=Sans Toi
TTITLE2=Aranjuez
TTITLE3=If I Loved You
TTITLE4=J'entends siffler le train
TTITLE5=Como te quiero
TTITLE6=Sunny
TTITLE7=J'irai pleurer sous la pluie
TTITLE8=La terre promise
TTITLE9=Fille sauvage
TTITLE10=Donne moi ma chance
TTITLE11=Ecoute dans le vent
TTITLE12=Tchin tchin
TTITLE13=Le rap
EXTD=Richard Anthony - Les inoubliables
EXTT0=
EXTT1=
EXTT2=
EXTT3=
EXTT4=
EXTT5=
EXTT6=
EXTT7=
EXTT8=
EXTT9=
EXTT10=
EXTT11=
EXTT12=
EXTT13=
PLAYORDER=
